<svg width="256" height="256" viewBox="0 0 256 256" fill="none" xmlns="http://www.w3.org/2000/svg">
<g clip-path="url(#clip0_2264_7)">
<rect width="256" height="256" rx="9.6" fill="#06183D"/>
<path d="M123.071 162.289C123.11 164.932 122.224 167.026 120.322 168.912C108.177 180.971 96.0867 193.089 84.0043 205.214C82.3808 206.842 80.4436 207.63 78.2161 207.642C70.0514 207.685 61.8828 207.685 53.7181 207.661C50.3494 207.653 48.42 205.669 48.4161 202.257C48.4004 194.614 48.4279 186.971 48.4043 179.324C48.3965 176.626 49.3534 174.355 51.22 172.461C60.5298 163.018 87.5651 135.551 91.6985 131.191C93.2906 129.508 95.1102 128.72 97.424 128.74C104.283 128.798 118.789 128.755 119.181 128.791C121.565 129.006 123.012 130.5 123.032 132.889C123.071 136.94 123.008 157.587 123.075 162.289H123.071Z" fill="white"/>
<path d="M202.832 48.7746C205.546 48.7001 207.169 50.206 207.577 53.1511C207.64 53.6021 207.577 68.6334 207.6 75.6883C207.608 78.4413 206.691 80.6491 204.659 82.6334C197.651 89.4844 164.24 123.751 162.259 126.088C160.059 128.68 157.475 130.104 153.942 129.982C148.981 129.814 144.012 129.924 139.048 129.951C137.448 129.959 136.075 129.516 135.106 128.202C134.769 127.743 134.463 127.179 134.385 126.63C134.181 125.214 134.197 96.9589 134.314 91.2217C134.35 89.457 134.973 87.9511 136.271 86.6805C140.189 82.8374 164.048 59.2217 172.036 51.2334C173.718 49.5511 175.534 48.7119 177.946 48.7825C181.993 48.904 198.593 48.8923 202.836 48.7785L202.832 48.7746Z" fill="#48A3FE"/>
<path d="M90.7416 117.912C88.1691 117.935 86.0828 116.994 84.2749 115.186C73.9769 104.869 51.5887 82.7119 50.722 81.9198C49.1808 80.5198 48.4357 78.7198 48.424 76.6923C48.3808 68.9159 48.3808 61.1355 48.4279 53.359C48.4436 50.3708 50.373 48.4374 53.3651 48.4217C61.7965 48.3786 70.2279 48.3825 78.6593 48.4335C80.6828 48.4453 82.4318 49.2688 83.8985 50.7355C96.3142 63.1825 108.742 75.6217 121.185 88.0414C122.416 89.2727 123.055 90.6766 123.055 92.4021C123.055 99.3316 123.083 106.257 123.047 113.186C123.032 116.116 121.2 117.869 118.197 117.888C113.491 117.92 95.1887 117.869 90.7455 117.912H90.7416Z" fill="white"/>
<path d="M168.424 141.265C171.487 141.206 173.946 142.195 176.122 144.398C185.942 154.348 195.836 164.222 205.722 174.104C207.055 175.438 207.702 177.026 207.71 178.849C207.746 186.885 207.757 194.92 207.722 202.955C207.71 205.461 205.848 207.371 203.326 207.646C202.875 207.697 185.887 207.657 177.851 207.669C175.581 207.669 173.683 206.9 172.059 205.289C160.197 193.504 148.334 181.72 136.412 169.995C134.742 168.351 133.965 166.434 133.938 164.242C133.851 158.234 133.871 152.222 133.918 146.214C133.942 143.167 135.797 141.332 138.836 141.308C144.063 141.265 163.793 141.355 168.428 141.265H168.424Z" fill="white"/>
</g>
<defs>
<clipPath id="clip0_2264_7">
<rect width="256" height="256" fill="white"/>
</clipPath>
</defs>
</svg>
