<svg width="110" height="135" viewBox="0 0 110 135" fill="none" xmlns="http://www.w3.org/2000/svg">
<path fill-rule="evenodd" clip-rule="evenodd" d="M46.4561 30.4177C51.7083 27.2387 58.2917 27.2387 63.5439 30.4177L90.043 46.4567C91.701 47.2223 92.9486 48.0016 93.8828 48.7888C93.949 48.8369 94.0093 48.8903 94.0654 48.947C95.8692 50.5399 96.4167 52.1683 96.4912 53.8083C96.4912 53.8668 96.5107 53.9178 96.5107 53.9802V102.05C96.5107 102.101 96.5107 102.16 96.4912 102.211H96.4795C96.3584 104.871 94.1709 107 91.4912 107H18.5186C15.8272 107 13.6475 104.871 13.5303 102.211C13.5302 102.16 13.5185 102.101 13.5107 102.05V53.9802C13.5107 53.9217 13.5108 53.8707 13.5303 53.8083C13.6019 52.0593 14.4239 50.3255 15.9648 48.9157C15.9788 48.9024 15.9932 48.8895 16.0078 48.8766C16.8135 48.1489 17.8123 47.5087 19 46.9997V47.0368L46.4561 30.4177ZM60.7607 75.5114C57.421 72.7422 52.57 72.7422 49.2305 75.5114L16.6094 102.601C16.8711 103.41 17.6288 104 18.5195 104H91.4795C92.3779 104 93.1278 103.41 93.3896 102.601L60.7607 75.5114ZM67.3975 77.1208L93.5 98.7927V57.0632L67.3975 77.1208ZM16.499 98.7888L42.5986 77.1188L16.499 57.0622V98.7888ZM61.9902 32.985C57.6929 30.3841 52.3071 30.384 48.0098 32.985L18.417 50.8952C17.6038 51.5783 16.8378 52.7304 16.6201 53.3708L44.9727 75.1599L47.3242 73.2106C49.5547 71.3591 52.2735 70.4411 55.0039 70.4411C57.7344 70.4411 60.4648 71.3631 62.6836 73.2106L65.0352 75.1599L93.3867 53.3708C93.1167 52.5814 90.8788 49.9997 90 49.9997L89.9814 49.9265L61.9902 32.985Z" fill="black"/>
<path d="M54.2982 55.5467C53.3103 55.5467 52.8801 54.8137 52.8801 53.9055V53.4594C52.8801 51.3083 53.8839 49.8902 56.0669 48.5836C57.9152 47.4523 58.6322 46.4166 58.6322 44.7913C58.6322 42.7199 57.0707 41.3177 54.7284 41.3177C52.6092 41.3177 51.207 42.3853 50.6812 44.2974C50.4103 45.2693 50.0598 45.5721 49.3428 45.5721C48.5301 45.5721 48.084 45.0941 48.084 44.2655C48.084 43.5803 48.2115 43.0386 48.4983 42.4172C49.4384 40.1545 51.7807 38.832 54.84 38.832C58.7916 38.832 61.5959 41.2381 61.5959 44.6479C61.5959 47.1495 60.3053 48.8704 58.2658 50.0973C56.2421 51.2924 55.6685 52.1847 55.6685 53.8577C55.6685 54.8615 55.2861 55.5467 54.2982 55.5467ZM54.2823 62.1593C53.2625 62.1593 52.4658 61.3626 52.4658 60.3428C52.4658 59.3071 53.2625 58.5263 54.2823 58.5263C55.318 58.5263 56.0987 59.3071 56.0987 60.3428C56.0987 61.3626 55.318 62.1593 54.2823 62.1593Z" fill="black"/>
</svg>
