<svg width="108" height="149" viewBox="0 0 108 149" fill="none" xmlns="http://www.w3.org/2000/svg">
<path d="M39.4141 127.66L37.3512 140.725C36.8339 144.001 33.7559 146.236 30.4801 145.714L8.05741 142.14C4.70105 141.604 2.45881 138.391 3.11484 135.056L5.75013 121.66L11.0643 94.6466C12.9539 85.0412 16.2457 75.7659 20.8342 67.1183C24.8705 59.5115 29.8738 52.4588 35.7197 46.1357L51.4141 29.1602M51.4141 29.1602L47.2561 26.6654C45.3965 25.5496 44.7647 23.1552 45.8318 21.2672L55.0077 5.03293C56.0703 3.15303 58.4331 2.45585 60.346 3.45783L84.6711 16.1996C86.7043 17.2646 87.4262 19.8183 86.2515 21.7901L83.3502 26.6602M51.4141 29.1602L67.9141 38.1602M83.3502 26.6602L81.4141 29.9102L76.3744 38.3696C75.2783 40.2095 72.9273 40.8596 71.0416 39.8442L67.9141 38.1602M67.9141 38.1602L51.689 70.6103C48.5245 76.9392 46.3524 83.7172 45.2488 90.7066L39.4141 127.66M104.914 43.1602L81.4141 29.9102M88.4141 29.9102L83.3502 26.6602M23.9141 99.1602C25.5807 91.6602 29.9141 75.3602 33.9141 70.1602M5.75013 121.66C16.0436 126.26 27.2873 128.334 38.5445 127.708L39.4141 127.66" stroke="black" stroke-width="6" stroke-linecap="round"/>
</svg>
