<?xml version="1.0" encoding="UTF-8"?>
<svg id="_Слой_2" data-name="Слой 2" xmlns="http://www.w3.org/2000/svg" viewBox="0 0 1806.43 406.17">
  <defs>
    <style>
      .cls-1 {
        fill: #48a3fe;
      }

      .cls-1, .cls-2 {
        stroke-width: 0px;
      }

      .cls-2 {
        fill: #001e52;
      }
    </style>
  </defs>
  <g id="_Слой_2-2" data-name="Слой 2">
    <g>
      <path class="cls-2" d="m190.43,290.43c.1,6.74-2.16,12.08-7.01,16.89-30.97,30.75-61.8,61.65-92.61,92.57-4.14,4.15-9.08,6.16-14.76,6.19-20.82.11-41.65.11-62.47.05-8.59-.02-13.51-5.08-13.52-13.78-.04-19.49.03-38.98-.03-58.48-.02-6.88,2.42-12.67,7.18-17.5,23.74-24.08,92.68-94.12,103.22-105.24,4.06-4.29,8.7-6.3,14.6-6.25,17.49.15,54.48.04,55.48.13,6.08.55,9.77,4.36,9.82,10.45.1,10.33-.06,62.98.11,74.97Z"/>
      <path class="cls-1" d="m393.82.97c6.92-.19,11.06,3.65,12.1,11.16.16,1.15,0,39.48.06,57.47.02,7.02-2.32,12.65-7.5,17.71-17.87,17.47-103.07,104.85-108.12,110.81-5.61,6.61-12.2,10.24-21.21,9.93-12.65-.43-25.32-.15-37.98-.08-4.08.02-7.58-1.11-10.05-4.46-.86-1.17-1.64-2.61-1.84-4.01-.52-3.61-.48-75.66-.18-90.29.09-4.5,1.68-8.34,4.99-11.58,9.99-9.8,70.83-70.02,91.2-90.39,4.29-4.29,8.92-6.43,15.07-6.25,10.32.31,52.65.28,63.47-.01Z"/>
      <path class="cls-2" d="m107.99,177.27c-6.56.06-11.88-2.34-16.49-6.95C65.24,144.01,8.15,87.51,5.94,85.49,2.01,81.92.11,77.33.08,72.16-.03,52.33-.03,32.49.09,12.66.13,5.04,5.05.11,12.68.07c21.5-.11,43-.1,64.5.03,5.16.03,9.62,2.13,13.36,5.87,31.66,31.74,63.35,63.46,95.08,95.13,3.14,3.14,4.77,6.72,4.77,11.12,0,17.67.07,35.33-.02,53-.04,7.47-4.71,11.94-12.37,11.99-12,.08-58.67-.05-70,.06Z"/>
      <path class="cls-2" d="m306.08,236.82c7.81-.15,14.08,2.37,19.63,7.99,25.04,25.37,50.27,50.55,75.48,75.75,3.4,3.4,5.05,7.45,5.07,12.1.09,20.49.12,40.98.03,61.47-.03,6.39-4.78,11.26-11.21,11.96-1.15.13-44.47.03-64.96.06-5.79,0-10.63-1.96-14.77-6.07-30.25-30.05-60.5-60.1-90.9-90-4.26-4.19-6.24-9.08-6.31-14.67-.22-15.32-.17-30.65-.05-45.97.06-7.77,4.79-12.45,12.54-12.51,13.33-.11,63.64.12,75.46-.11Z"/>
      <path class="cls-2" d="m987.14,256.99s9.92-.18,14.55.07c3,.16,4.24-1.03,5.52-3.68,8.29-17.15,11.33-35.44,11.95-54.22.52-15.81,1.16-53.13,1.16-53.13h115.66v110.94h21.55l.43,52.34-27.81.4-.43-27.32h-114.26l-.54,27.7h-27.79s0-53.1,0-53.1Zm118.21-.22v-85.89l-56.02.23s-.85,26.84-2.01,39.26c-1.38,14.82-10.54,45.11-10.96,46.4h68.98Z"/>
      <path class="cls-2" d="m604.14,281.48v-135.34c1.04-.15,18.23-.11,25.88-.44,4.03-.18,6.42,1.28,8.53,4.52,9.06,13.97,43.94,66.72,52.41,79.58.73-.92,36.88-54.18,54.19-80.06,1.98-2.97,4.2-4.15,7.77-4.01,6.49.27,25.23.05,25.23.05l-.08,136.06-30.4.06v-86.38s-30.3,44.29-44.21,65.22c-1.67,2.51-3.41,3.75-6.45,3.6-4.16-.2-8.34-.23-12.49.01-3.06.18-4.79-1.04-6.41-3.57-9.72-15.13-38.63-59.02-43.89-66.95v87.18l-30.08.46Z"/>
      <path class="cls-2" d="m1471.32,145.82c-6.01,0-18.91-.11-23.76-.11s-7.46,1.3-10.25,4.63c-6.3,7.53-78.14,88.65-78.14,88.65l-.32-92.99h-30.43s-.23,127.6-.23,132.11c.07,3.62.38,3.94,4.1,3.97,7.5.06,15.14.04,22.49.04,3.02.07,4.84-1.15,6.72-3.36,10.06-11.77,73.81-84.41,79.63-91,0,2.6,0,89.87,0,91.2-.02,2.03.9,3.1,3,3.1,8.33-.02,16.66-.02,24.99-.02,1.88,0,2.68-1.09,2.78-2.82l-.57-133.43Z"/>
      <path class="cls-2" d="m953.03,282.08v-25.06h-95.78l.65-32.81,81.13-.35v-24.78l-81.65-.17.07-28.58,94.5-.4c.16-8.21.39-15.94.09-23.84h-125.27l.09,136.02,126.17-.04Z"/>
      <path class="cls-2" d="m1660.88,282.1s-24.57-.07-34.73.09c-2.81.04-4.62-1.05-6.39-3.06-9.78-11.14-40.61-45.69-45.96-52.07-1.65-1.96-3.23-2.92-5.86-2.92-7.95,0-21.55.06-21.55.06l-.04,56.96-30.26.46-.07-135.58,30.18-.18.21,53.25s16.8-.08,23.3.02c2.34.04,3.96-.65,5.58-2.46,14.43-16.14,29.01-32.16,43.47-48.28,1.43-1.59,2.78-2.61,5.04-2.6,11.3.08,22.6.04,34.82.04-20.46,22.31-40.43,44.07-60.75,66.23,20.95,22.93,63.02,70.05,63.02,70.05Z"/>
      <path class="cls-2" d="m1806.1,147.94l-5,24.91s-21.88-2.08-30.33-2.7c-7.79-.57-15.62-.82-23.43-.75-7.31.06-14.59.84-21.71,2.78-12.08,3.29-18.95,10.97-20.63,23.51-1.63,12.11-1.66,24.25.06,36.34,1.74,12.26,9.18,19.7,20.82,22.88,5.26,1.44,30.47,2.72,37.62,2.59,1.83-.03,21.35-1.94,29.27-2.8,2.96-.32,9.43-1.36,9.43-1.36,0,0,3.45,22.66,4.23,25.59-3.83,1.4-45.47,5.63-66.31,5.02-13.55-.4-26.93-2.17-39.13-8.77-14.21-7.69-23.74-19.11-27.33-35.09-1.44-4.98-3.24-38.52.57-53.6,4.7-18.6,16.82-30.61,34.4-37.4,7.97-3.08,16.34-4.65,24.86-5.09,8.31-.43,16.65-.96,24.95-.68,9.96.34,19.9,1.44,29.84,2.3,4.47.39,17.83,2.32,17.83,2.32Z"/>
      <rect class="cls-2" x="1197.81" y="199.09" width="85.55" height="25.13"/>
    </g>
  </g>
</svg>